<svg xmlns="http://www.w3.org/2000/svg" width="216.262" height="222.985" viewBox="0 0 216.262 222.985">
  <path id="squiggle-2" d="M92.521,189.515c22.591-19.88-25.644-40.843-40.14-46.557-5.549-13.141-7.1-29.438,4.387-39.748,7.2-8.645,20.39-6.5,30.309-5.364,19.924,2.415,17.306,5.048,28.866,19.832,9.708,11.734,49.185,51.484,63.558,31.214,4.545-13.048-16.318-23.607-25.1-29.568a222.946,222.946,0,0,0-36.952-16.964c-7.86-2.315-13.4-3.441-16.5-12.107-12.337-22.5-32.12-78.364,5.1-86.942,28.668-1.569,53.053,19.511,75.248,34.607,1.038.584-.914-1.311-6.854-6.264l1.418.724C162.536,22.57,150.3,12.762,135,6.624c-.59-.208-1.58-.545-1.371-.33-.956.512-5.623-1.9-6.905-2.079C95.352-10.172,78.292,15.295,83.251,46.429c-.094-.3-.523-2.225-.6-2.474C82.89,56.54,92.816,81.07,99.263,91.674c1.719,3.077,1.908,3.647-.63-.225,1.047,2.011,2.168,4.053,3.357,6.107-13.716-3.264-28.858-7.119-42.351-1.315-15.885,10.045-18.363,28.421-12.178,45.087-24-8.807-53.5-1.671-45.313,29.319.408-18.815,5.562-31.255,27.653-29.975,23.422,2.062,17.047,4.509,28.587,21.935,8.636,11.736,20.363,28.444,34.138,26.923Zm37.2-80.079a227.394,227.394,0,0,1,27.4,14.644l-.295.2a138.019,138.019,0,0,0-17.372-9.241c10.4,5.481,26.947,13.968,35.33,25.179,6.693,8.115-5.767,13.37-12.235,9.694-16.068-7.489-30.238-18.687-41.956-31.556,1.793,2.5,7.08,7.151,8.308,9.368a149.2,149.2,0,0,1-15.326-16.872c.427-.339,2.851,3.113,3.5,3.668-.535-.674-5.964-7.675-9.4-13.045a149.881,149.881,0,0,1,22.055,7.969Zm-41.037,77.44a13.1,13.1,0,0,1-2.441-.593c.279.08,1.461.2,1.613.211-16.1-7.05-26.4-24.37-34-39.977,6.367,2.426,19.832,9.248,26.49,14.215-.159-.359.636-.006,1.186.529a3.655,3.655,0,0,0-.369.042c5.755,4.314,11.993,7.795,13.563,14.94.877,4.266-.391,11.6-6.046,10.633Z" transform="matrix(0.978, 0.208, -0.208, 0.978, 38.689, -0.246)" fill="#00e9c8"/>
</svg>
