<?xml version="1.0" encoding="UTF-8"?>
<svg version="1.1" xmlns="http://www.w3.org/2000/svg" width="300" height="82">
<path d="M0 0 C1.24136719 -0.03738281 2.48273438 -0.07476562 3.76171875 -0.11328125 C12.7398617 -0.20026003 12.7398617 -0.20026003 15.68945312 1.47949219 C17.046875 2.8359375 17.046875 2.8359375 18.75 5.375 C19.245 5.87 19.245 5.87 19.75 6.375 C19.83651611 7.79070123 19.85704904 9.210595 19.84765625 10.62890625 C19.84515869 11.3979126 19.84266113 12.16691895 19.84008789 12.95922852 C19.83098389 13.94205811 19.82187988 14.9248877 19.8125 15.9375 C19.791875 19.051875 19.77125 22.16625 19.75 25.375 C10.18 25.375 0.61 25.375 -9.25 25.375 C-8.59 27.355 -7.93 29.335 -7.25 31.375 C5.62 31.87 5.62 31.87 18.75 32.375 C18.75 35.345 18.75 38.315 18.75 41.375 C14.42671196 41.4494013 10.10376745 41.50371968 5.7800293 41.53979492 C4.31056218 41.55484066 2.84113966 41.57528238 1.37182617 41.60131836 C-0.7457177 41.63788955 -2.86266565 41.65476801 -4.98046875 41.66796875 C-6.25301514 41.6836792 -7.52556152 41.69938965 -8.83666992 41.71557617 C-12.48970799 41.35108235 -14.35372829 40.58516201 -17.25 38.375 C-18.28384732 36.08576665 -18.42620045 34.95733625 -17.69921875 32.5546875 C-17.14745343 29.87742619 -17.57593188 28.09562287 -18.1875 25.4375 C-21.20982455 9.80116811 -21.20982455 9.80116811 -18.1640625 4.4765625 C-16.8125 3.125 -16.8125 3.125 -14.25 1.375 C-11.53300982 -1.34199018 -3.65156878 0.04119719 0 0 Z M-9.25 11.375 C-9.25 13.025 -9.25 14.675 -9.25 16.375 C-2.98 16.375 3.29 16.375 9.75 16.375 C9.75 14.725 9.75 13.075 9.75 11.375 C7.25789561 8.88289561 5.74639212 9.11484339 2.33984375 9.1015625 C1.65019531 9.10929687 0.96054688 9.11703125 0.25 9.125 C-0.78447266 9.11339844 -0.78447266 9.11339844 -1.83984375 9.1015625 C-6.00214386 8.9988695 -6.00214386 8.9988695 -9.25 11.375 Z " fill="#404040" transform="translate(149.25,35.625)"/>
<path d="M0 0 C1.97129883 -0.00290039 1.97129883 -0.00290039 3.98242188 -0.00585938 C14.60960075 0.15113919 14.60960075 0.15113919 19.4375 4.6875 C17.5625 8.5625 17.5625 8.5625 16.4375 9.6875 C16.58434915 11.62438561 16.58434915 11.62438561 16.99609375 13.9140625 C17.13466797 14.78160156 17.27324219 15.64914063 17.41601562 16.54296875 C17.56748047 17.45691406 17.71894531 18.37085937 17.875 19.3125 C20.4542774 34.87827018 20.4542774 34.87827018 17.80859375 39.5859375 C12.34749042 42.99042602 6.79767188 42.40864766 0.5 42.3125 C-1.39395508 42.34150391 -1.39395508 42.34150391 -3.32617188 42.37109375 C-13.6265913 42.31673797 -13.6265913 42.31673797 -17.37890625 39.3359375 C-21.81258498 33.95841661 -20.89473886 27.60161938 -21 20.9375 C-21.04576172 19.76960938 -21.09152344 18.60171875 -21.13867188 17.3984375 C-21.26522361 7.69246959 -21.26522361 7.69246959 -18.4453125 3.40234375 C-13.52130448 -1.28947528 -6.32881456 -0.19612165 0 0 Z M-9.5625 10.6875 C-9.66149523 12.23705559 -9.69329524 13.79103673 -9.6953125 15.34375 C-9.69660156 16.28347656 -9.69789062 17.22320312 -9.69921875 18.19140625 C-9.69535156 19.18011719 -9.69148438 20.16882813 -9.6875 21.1875 C-9.69136719 22.17621094 -9.69523437 23.16492188 -9.69921875 24.18359375 C-9.69792969 25.12332031 -9.69664063 26.06304687 -9.6953125 27.03125 C-9.69418457 27.89943359 -9.69305664 28.76761719 -9.69189453 29.66210938 C-9.7866537 31.68354154 -9.7866537 31.68354154 -8.5625 32.6875 C-5.73833618 32.81413091 -2.94955207 32.87270548 -0.125 32.875 C1.05932617 32.89336914 1.05932617 32.89336914 2.26757812 32.91210938 C4.32557435 32.91737279 6.38312009 32.80956285 8.4375 32.6875 C10.84579792 30.27920208 10.69352579 29.69466444 10.703125 26.40625 C10.70570312 25.56449219 10.70828125 24.72273438 10.7109375 23.85546875 C10.70320313 22.97503906 10.69546875 22.09460937 10.6875 21.1875 C10.69523437 20.30707031 10.70296875 19.42664062 10.7109375 18.51953125 C10.70707031 17.25689453 10.70707031 17.25689453 10.703125 15.96875 C10.70086914 15.19595703 10.69861328 14.42316406 10.69628906 13.62695312 C10.60574373 11.45082939 10.60574373 11.45082939 8.4375 9.6875 C5.54617823 9.51570948 2.76307935 9.4552053 -0.125 9.5 C-0.91841797 9.50064453 -1.71183594 9.50128906 -2.52929688 9.50195312 C-6.35489799 9.16650542 -6.35489799 9.16650542 -9.5625 10.6875 Z " fill="#404040" transform="translate(59.5625,35.3125)"/>
<path d="M0 0 C5.38571573 1.51904803 10.71234765 3.3261419 15 7 C16.88038307 10.74672111 17.55738909 14.57958573 18.28515625 18.6875 C18.6322892 20.39039185 18.6322892 20.39039185 18.98643494 22.12768555 C19.71446124 25.74573118 20.38836674 29.37156979 21.0625 33 C21.54803378 35.44078268 22.03693066 37.88089891 22.52929688 40.3203125 C23.41715039 44.78931789 24.29728245 49.25921666 25.13305664 53.73828125 C25.30132462 54.63587158 25.46959259 55.53346191 25.64295959 56.45825195 C26.58686034 63.17782158 26.58686034 63.17782158 24.40234375 66.23828125 C14.79571095 74.32246828 3.92461586 72.78164632 -8 72 C-6.85861135 68.57583405 -6.12070897 68.09315141 -3.25390625 66.08203125 C-2.49916016 65.55029297 -1.74441406 65.01855469 -0.96679688 64.47070312 C-0.17337891 63.92349609 0.62003906 63.37628906 1.4375 62.8125 C2.22705078 62.25369141 3.01660156 61.69488281 3.83007812 61.11914062 C9.72965316 57 9.72965316 57 12 57 C11.83781982 56.39043457 11.67563965 55.78086914 11.50854492 55.15283203 C9.00114552 45.44660424 6.97044894 35.64566169 4.9284668 25.83300781 C4.30652459 22.84630477 3.67986059 19.86061837 3.05273438 16.875 C2.65597171 14.97662064 2.25947731 13.07818519 1.86328125 11.1796875 C1.6758284 10.28708221 1.48837555 9.39447693 1.29524231 8.474823 C1.12473862 7.65281403 0.95423492 6.83080505 0.77856445 5.98388672 C0.62772903 5.26063202 0.47689362 4.53737732 0.32148743 3.79220581 C0 2 0 2 0 0 Z " fill="#1C7ABF" transform="translate(105,5)"/>
<path d="M0 0 C4.18960963 -0.70181278 7.83479862 -0.93057665 12 0 C15.69008858 3.22689755 18.35730724 6.88914459 21 11 C24.13565548 8.63386264 26.43561794 6.53508517 28.5625 3.25 C30.70124032 0.6033794 31.62129366 0.05576342 35.05078125 -0.44921875 C38.06349343 -0.43859814 41.00367881 -0.30545022 44 0 C42.39435789 3.67127899 40.110728 6.48705241 37.5625 9.5625 C36.78003906 10.51253906 35.99757813 11.46257813 35.19140625 12.44140625 C33 15 33 15 31.15234375 16.58984375 C30.58193359 17.28787109 30.58193359 17.28787109 30 18 C30.44157322 21.1715976 31.52448759 22.93447403 33.65234375 25.27734375 C34.18150391 25.87353516 34.71066406 26.46972656 35.25585938 27.08398438 C35.81080078 27.69564453 36.36574219 28.30730469 36.9375 28.9375 C43.56653129 36.24881755 43.56653129 36.24881755 45 41 C40.77789854 41.78348274 37.19762217 42.00271068 33 41 C28.82551205 37.82770481 25.89710286 33.30719717 23 29 C19.07860071 30.49304918 17.78197835 32.65490244 15.5625 36.125 C12.97428678 39.54320949 11.8539294 40.83566994 7.58984375 41.65625 C4.33976917 41.62795773 1.21860206 41.4415765 -2 41 C-0.6599376 38.06813519 0.85444924 35.82979044 3.00390625 33.43359375 C3.57947266 32.78326172 4.15503906 32.13292969 4.74804688 31.46289062 C5.96136287 30.10852175 7.17490593 28.75435627 8.38867188 27.40039062 C8.96294922 26.75134766 9.53722656 26.10230469 10.12890625 25.43359375 C10.65556885 24.84634521 11.18223145 24.25909668 11.72485352 23.65405273 C13.21171491 21.91281497 13.21171491 21.91281497 14 19 C12.94005414 17.2466352 12.94005414 17.2466352 11.2890625 15.56640625 C10.70382812 14.91736328 10.11859375 14.26832031 9.515625 13.59960938 C8.89171875 12.92736328 8.2678125 12.25511719 7.625 11.5625 C6.40243922 10.23635405 5.18602601 8.90450787 3.9765625 7.56640625 C3.43080566 6.97802979 2.88504883 6.38965332 2.32275391 5.78344727 C0.88914176 3.85053167 0.41540795 2.35128655 0 0 Z " fill="#404040" transform="translate(254,36)"/>
<path d="M0 0 C1.11503906 0.00644531 2.23007812 0.01289062 3.37890625 0.01953125 C4.53777344 0.03628906 5.69664063 0.05304687 6.890625 0.0703125 C8.65212891 0.08384766 8.65212891 0.08384766 10.44921875 0.09765625 C13.34656036 0.12121187 16.24348941 0.15410598 19.140625 0.1953125 C19.140625 3.4953125 19.140625 6.7953125 19.140625 10.1953125 C11.880625 10.5253125 4.620625 10.8553125 -2.859375 11.1953125 C-2.859375 18.1253125 -2.859375 25.0553125 -2.859375 32.1953125 C4.400625 32.5253125 11.660625 32.8553125 19.140625 33.1953125 C19.140625 36.4953125 19.140625 39.7953125 19.140625 43.1953125 C15.28660371 43.28301633 11.43284209 43.33593985 7.578125 43.3828125 C6.49208984 43.40794922 5.40605469 43.43308594 4.28710938 43.45898438 C-1.87153121 43.51514219 -6.51243233 43.3891239 -11.859375 40.1953125 C-16.34818998 35.5811635 -15.38108073 29.84653877 -15.36035156 23.77807617 C-15.35937925 21.76660924 -15.40101377 19.75896315 -15.4453125 17.74804688 C-15.44917969 15.83668945 -15.44917969 15.83668945 -15.453125 13.88671875 C-15.46021484 12.72342041 -15.46730469 11.56012207 -15.47460938 10.36157227 C-14.67285827 6.23541747 -13.08021265 4.81528654 -9.859375 2.1953125 C-6.57719881 0.00252896 -3.90526192 -0.03984961 0 0 Z " fill="#404040" transform="translate(15.859375,34.8046875)"/>
<path d="M0 0 C3.63 0 7.26 0 11 0 C11 3.63 11 7.26 11 11 C14.96 11 18.92 11 23 11 C23 13.97 23 16.94 23 20 C19.04 20 15.08 20 11 20 C11 27.26 11 34.52 11 42 C14.3 42 17.6 42 21 42 C21 45.3 21 48.6 21 52 C18.81505105 52.16364389 16.62647024 52.27913269 14.4375 52.375 C12.61025391 52.47941406 12.61025391 52.47941406 10.74609375 52.5859375 C6.55045702 51.92968567 4.38170596 51.06802016 1.32788086 48.16162109 C-1.53893609 43.49480784 -0.6978701 37.90679346 -0.4375 32.625 C-0.40591797 31.41199219 -0.37433594 30.19898437 -0.34179688 28.94921875 C-0.25951765 25.96365816 -0.14460933 22.9830839 0 20 C-1.65 20 -3.3 20 -5 20 C-5 17.03 -5 14.06 -5 11 C-3.35 11 -1.7 11 0 11 C0 7.37 0 3.74 0 0 Z " fill="#404040" transform="translate(179,25)"/>
<path d="M0 0 C0.66 4.62 1.32 9.24 2 14 C-11.25892857 20.16071429 -11.25892857 20.16071429 -16 22 C-15.86722656 22.88300781 -15.73445313 23.76601563 -15.59765625 24.67578125 C-14.50412178 32.10702648 -13.58078891 39.51087984 -13 47 C-14.97909398 47.02686553 -16.95828971 47.04633375 -18.9375 47.0625 C-20.03964844 47.07410156 -21.14179687 47.08570313 -22.27734375 47.09765625 C-25 47 -25 47 -26 46 C-26.83985378 41.79817185 -27.42107272 37.5486399 -28.0625 33.3125 C-28.24876953 32.12720703 -28.43503906 30.94191406 -28.62695312 29.72070312 C-28.80291016 28.57150391 -28.97886719 27.42230469 -29.16015625 26.23828125 C-29.32136963 25.18680908 -29.48258301 24.13533691 -29.64868164 23.05200195 C-29.99940832 20.00514005 -30.06161784 17.06398297 -30 14 C-27.02347168 12.41167112 -24.04330229 10.83029131 -21.0625 9.25 C-20.23169922 8.8065625 -19.40089844 8.363125 -18.54492188 7.90625 C-3.60443474 0 -3.60443474 0 0 0 Z " fill="#1C7BBF" transform="translate(107,30)"/>
<path d="M0 0 C3.63 0 7.26 0 11 0 C11.33 0.66 11.66 1.32 12 2 C12.66 1.34 13.32 0.68 14 0 C17.0390625 -0.1953125 17.0390625 -0.1953125 20.625 -0.125 C22.40777344 -0.09792969 22.40777344 -0.09792969 24.2265625 -0.0703125 C25.14179688 -0.04710937 26.05703125 -0.02390625 27 0 C27 2.97 27 5.94 27 9 C19.08 9.495 19.08 9.495 11 10 C11 20.23 11 30.46 11 41 C7.37 41 3.74 41 0 41 C0 27.47 0 13.94 0 0 Z " fill="#404040" transform="translate(207,36)"/>
<path d="M0 0 C3.3 0 6.6 0 10 0 C10 13.53 10 27.06 10 41 C6.7 41 3.4 41 0 41 C0 27.47 0 13.94 0 0 Z " fill="#414141" transform="translate(238,36)"/>
<path d="M0 0 C3.3 0 6.6 0 10 0 C10 3.3 10 6.6 10 10 C6.7 10 3.4 10 0 10 C0 6.7 0 3.4 0 0 Z " fill="#404040" transform="translate(238,22)"/>
</svg>
