<svg version="1.1" id="Layer_1" xmlns="http://www.w3.org/2000/svg" xmlns:xlink="http://www.w3.org/1999/xlink" x="0px" y="0px"
	 width="100%" viewBox="0 0 500 500" enable-background="new 0 0 500 500" xml:space="preserve">
<path fill="#FFFFFF" opacity="1.000000" stroke="none" 
	d="
M440.000000,501.000000 
	C293.333374,501.000000 147.166733,501.000000 1.000078,501.000000 
	C1.000052,334.333405 1.000052,167.666809 1.000026,1.000168 
	C167.666550,1.000112 334.333099,1.000112 500.999756,1.000056 
	C500.999817,167.666519 500.999817,334.333038 500.999908,500.999756 
	C480.833344,501.000000 460.666656,501.000000 440.000000,501.000000 
M223.796204,243.072479 
	C225.434525,250.173721 227.072845,257.274963 228.665985,264.180420 
	C224.190460,267.589783 219.962509,270.810547 215.734558,274.031311 
	C215.986725,274.675568 216.238876,275.319824 216.491043,275.964081 
	C221.691498,275.504761 227.019714,275.599762 232.058365,274.438446 
	C237.682693,273.142090 239.017105,270.542114 238.036270,264.883636 
	C236.503021,256.038239 234.707932,247.238281 233.030731,238.417755 
	C231.589981,230.840652 229.144821,228.577515 220.990204,227.589890 
	C221.321960,229.458038 221.712112,231.213760 221.932404,232.990540 
	C222.345306,236.321075 222.659882,239.663803 222.658936,243.743668 
	C217.687149,245.911774 212.767700,248.212067 207.727600,250.207642 
	C203.419952,251.913239 201.406784,254.486465 202.636185,259.315613 
	C203.410721,262.358032 203.597198,265.552185 204.017975,268.682251 
	C205.043854,276.313202 206.040283,276.925781 213.752701,274.386810 
	C213.248032,270.329742 212.584305,266.230042 212.312119,262.104523 
	C212.222443,260.745392 212.913101,258.245148 213.640366,258.088043 
	C222.137436,256.252533 224.671143,250.975784 223.796204,243.072479 
z"/>
<path fill="#237EC1" opacity="1.000000" stroke="none" 
	d="
M223.015381,243.001450 
	C222.659882,239.663803 222.345306,236.321075 221.932404,232.990540 
	C221.712112,231.213760 221.321960,229.458038 220.990204,227.589890 
	C229.144821,228.577515 231.589981,230.840652 233.030731,238.417755 
	C234.707932,247.238281 236.503021,256.038239 238.036270,264.883636 
	C239.017105,270.542114 237.682693,273.142090 232.058365,274.438446 
	C227.019714,275.599762 221.691498,275.504761 216.491043,275.964081 
	C216.238876,275.319824 215.986725,274.675568 215.734558,274.031311 
	C219.962509,270.810547 224.190460,267.589783 228.665985,264.180420 
	C227.072845,257.274963 225.434525,250.173721 223.396362,243.033203 
	C222.996506,242.993942 223.015381,243.001450 223.015381,243.001450 
z"/>
<path fill="#237EC1" opacity="1.000000" stroke="none" 
	d="
M222.991669,242.983337 
	C224.671143,250.975784 222.137436,256.252533 213.640366,258.088043 
	C212.913101,258.245148 212.222443,260.745392 212.312119,262.104523 
	C212.584305,266.230042 213.248032,270.329742 213.752701,274.386810 
	C206.040283,276.925781 205.043854,276.313202 204.017975,268.682251 
	C203.597198,265.552185 203.410721,262.358032 202.636185,259.315613 
	C201.406784,254.486465 203.419952,251.913239 207.727600,250.207642 
	C212.767700,248.212067 217.687149,245.911774 222.837158,243.372559 
	C223.015381,243.001450 222.996506,242.993942 222.991669,242.983337 
z"/>
</svg>