<?xml version="1.0" encoding="utf-8"?>
<!-- Generator: Adobe Illustrator 23.0.5, SVG Export Plug-In . SVG Version: 6.00 Build 0)  -->
<svg version="1.1" id="True_FinEdge_Logo" xmlns="http://www.w3.org/2000/svg" xmlns:xlink="http://www.w3.org/1999/xlink" x="0px"
	 y="0px" viewBox="0 0 1920 401" style="enable-background:new 0 0 1920 401;" xml:space="preserve">
<style type="text/css">
	.st0{fill-rule:evenodd;clip-rule:evenodd;}
	.st1{fill-rule:evenodd;clip-rule:evenodd;fill:#61C4B6;}
	.st2{fill-rule:evenodd;clip-rule:evenodd;fill:#61C6C2;}
</style>
<g>
	<path id="Payment_Made_Easy" class="st0" d="M584,297.8h-26.5c-0.5-0.1-1,0.3-1,0.8c0,0.1,0,0.2,0,0.3v70.4c-0.1,0.5,0.3,1,0.8,1
		c0.1,0,0.2,0,0.3,0h3.4c0.5,0.1,1-0.3,1-0.8c0-0.1,0-0.2,0-0.3v-31.8c0-0.2,0.1-0.4,0.3-0.4c0,0,0.1,0,0.1,0h21.5
		c5.3,0.2,10.5-1.7,14.3-5.4c3.7-3.8,5.6-8.9,5.4-14.1c0.2-5.3-1.7-10.5-5.4-14.3C594.4,299.5,589.3,297.5,584,297.8L584,297.8
		L584,297.8z M583.6,332.3h-21.3c-0.2,0-0.4-0.1-0.4-0.3c0,0,0-0.1,0-0.1v-28.8c0-0.2,0.1-0.4,0.3-0.4c0,0,0.1,0,0.1,0h21.3
		c3.9-0.2,7.7,1.3,10.5,4.1c5.3,6.2,5.3,15.3,0,21.5C591.3,331,587.5,332.5,583.6,332.3L583.6,332.3L583.6,332.3z M682.9,370.2h3.5
		c0.4,0.1,0.8-0.1,0.9-0.5c0-0.1,0-0.1,0-0.2l-0.1-0.4l-23-70.3c-0.2-0.5-0.7-0.9-1.3-0.8h-4.6c-0.6,0-1.1,0.3-1.3,0.8l-22.9,70.3
		c-0.2,0.8,0.1,1.1,0.8,1.1h3.6c0.6,0.1,1.1-0.3,1.3-0.8l4.3-13.7c0-0.2,0.2-0.3,0.4-0.3h32.2c0.2,0,0.4,0.1,0.4,0.3l4.4,13.7
		C681.9,369.9,682.4,370.3,682.9,370.2L682.9,370.2L682.9,370.2z M645.9,350.3l14.6-44.9c0.1-0.2,0.3-0.3,0.4-0.2
		c0.1,0,0.2,0.1,0.2,0.2l14.6,44.9c0.1,0.1,0,0.3-0.1,0.4c-0.1,0.1-0.2,0.2-0.4,0.2h-28.9c-0.1,0-0.3-0.1-0.4-0.2
		C645.8,350.6,645.8,350.4,645.9,350.3L645.9,350.3L645.9,350.3z M740.8,370.2h3.3c0.5,0.1,1-0.3,1-0.8c0-0.1,0-0.2,0-0.3v-31.8
		c0-0.2,0-0.4,0.1-0.5l21.6-37.7c0.2-0.2,0.2-0.6,0.1-0.9c-0.2-0.3-0.5-0.4-0.8-0.4h-3.5c-0.5,0-1,0.3-1.3,0.7l-18.6,32.4
		c-0.1,0.1-0.2,0.1-0.3,0.1c-0.1,0-0.2,0-0.3-0.1l-18.6-32.4c-0.3-0.4-0.7-0.7-1.3-0.7h-3.5c-0.6,0-0.9,0.2-0.9,0.6
		c0,0.2,0.1,0.4,0.2,0.6l21.6,37.7c0.1,0.2,0.1,0.3,0.1,0.5v31.8c-0.1,0.5,0.3,1,0.8,1C740.6,370.2,740.7,370.2,740.8,370.2
		L740.8,370.2L740.8,370.2z M851.3,298.7l-20.2,31c-0.2,0.1-0.4,0.1-0.6,0l-20.2-31c-0.3-0.4-0.7-0.7-1.3-0.7h-3.6
		c-0.5-0.1-1,0.3-1,0.8c0,0.1,0,0.2,0,0.3v70.2c-0.1,0.5,0.3,1,0.8,1c0.1,0,0.2,0,0.3,0h3.4c0.5,0.1,1-0.3,1-0.8c0-0.1,0-0.2,0-0.3
		v-60.4c0-0.2,0.1-0.3,0.2-0.4c0.1-0.1,0.2,0,0.3,0.2l18.4,28c0.3,0.4,0.7,0.7,1.2,0.7h1.8c0.5,0,1-0.3,1.2-0.7l18.2-28.1
		c0.1-0.2,0.2-0.3,0.3-0.3c0.1,0.1,0.2,0.2,0.2,0.4v60.6c-0.1,0.5,0.3,1,0.8,1c0.1,0,0.2,0,0.3,0h3.4c0.5,0.1,1-0.3,1-0.8
		c0-0.1,0-0.2,0-0.3V299c0.1-0.5-0.3-1-0.8-1c-0.1,0-0.2,0-0.3,0h-3.5C852,298,851.5,298.2,851.3,298.7L851.3,298.7L851.3,298.7z
		 M947,301.8V299c0.1-0.5-0.3-1-0.8-1c-0.1,0-0.2,0-0.3,0h-44c-0.5-0.1-1,0.3-1,0.8c0,0.1,0,0.2,0,0.3v70.2c-0.1,0.5,0.3,1,0.8,1
		c0.1,0,0.2,0,0.3,0h44c0.5,0.1,1-0.3,1-0.8c0-0.1,0-0.2,0-0.3v-2.8c0.1-0.5-0.3-1-0.8-1c-0.1,0-0.2,0-0.3,0h-39.1
		c-0.2,0-0.4-0.1-0.4-0.3c0,0,0-0.1,0-0.1v-28.2c0-0.2,0.1-0.4,0.3-0.4c0,0,0.1,0,0.1,0h27.8c0.5,0.1,1-0.3,1-0.8c0-0.1,0-0.2,0-0.3
		v-2.8c0.1-0.5-0.3-1-0.8-1c-0.1,0-0.2,0-0.3,0h-27.8c-0.2,0-0.4-0.1-0.4-0.3c0,0,0-0.1,0-0.1v-27.9c0-0.2,0.1-0.4,0.3-0.4
		c0,0,0.1,0,0.1,0h39.1c0.5,0.1,1-0.3,1-0.8C947,301.9,947,301.9,947,301.8L947,301.8L947,301.8z M1030.3,299v60.2
		c0,0.2-0.1,0.3-0.2,0.4c-0.1,0-0.2-0.1-0.3-0.3l-37.3-60.6c-0.3-0.4-0.7-0.7-1.3-0.7h-3.5c-0.5-0.1-1,0.3-1,0.8c0,0.1,0,0.2,0,0.3
		v70.2c-0.1,0.5,0.3,1,0.8,1c0.1,0,0.2,0,0.3,0h3.4c0.5,0.1,1-0.3,1-0.8c0-0.1,0-0.2,0-0.3V309c0-0.2,0.1-0.3,0.2-0.4
		c0.1,0,0.2,0.1,0.3,0.3l37.4,60.6c0.3,0.4,0.7,0.7,1.3,0.7h3.4c0.5,0.1,1-0.3,1-0.8c0-0.1,0-0.2,0-0.3V299c0.1-0.5-0.3-1-0.8-1
		c-0.1,0-0.2,0-0.3,0h-3.4c-0.5-0.1-1,0.3-1,0.8C1030.2,298.8,1030.2,298.9,1030.3,299L1030.3,299L1030.3,299z M1121.4,298h-46.5
		c-0.5-0.1-1,0.3-1,0.8c0,0.1,0,0.2,0,0.3v2.8c-0.1,0.5,0.3,1,0.8,1c0.1,0,0.2,0,0.3,0h19.6c0.2,0,0.4,0.1,0.4,0.3c0,0,0,0.1,0,0.1
		v66c-0.1,0.5,0.3,1,0.8,1c0.1,0,0.2,0,0.3,0h3.4c0.5,0.1,1-0.3,1-0.8c0-0.1,0-0.2,0-0.3v-66c0-0.2,0.1-0.4,0.3-0.4c0,0,0.1,0,0.1,0
		h20.6c0.5,0.1,1-0.3,1-0.8c0-0.1,0-0.2,0-0.3V299c0.1-0.5-0.3-1-0.8-1C1121.6,297.9,1121.5,297.9,1121.4,298L1121.4,298L1121.4,298
		z M1250.9,298.7l-20.2,31c-0.2,0.1-0.4,0.1-0.6,0l-20.2-31c-0.3-0.4-0.7-0.7-1.2-0.7h-3.6c-0.5-0.1-1,0.3-1,0.8c0,0.1,0,0.2,0,0.3
		v70.2c-0.1,0.5,0.3,1,0.8,1c0.1,0,0.2,0,0.3,0h3.4c0.5,0.1,1-0.3,1-0.8c0-0.1,0-0.2,0-0.3v-60.4c0-0.2,0.1-0.3,0.2-0.4
		c0.1-0.1,0.2,0,0.3,0.2l18.4,28c0.3,0.4,0.7,0.7,1.2,0.7h1.8c0.5,0,1-0.3,1.2-0.7l18.2-28.1c0.1-0.2,0.2-0.3,0.3-0.3
		c0.2,0.1,0.2,0.2,0.2,0.4v60.6c-0.1,0.5,0.3,1,0.8,1c0.1,0,0.2,0,0.3,0h3.4c0.5,0.1,1-0.3,1-0.8c0-0.1,0-0.2,0-0.3V299
		c0.1-0.5-0.3-1-0.8-1c-0.1,0-0.2,0-0.3,0h-3.5C1251.6,298,1251.1,298.2,1250.9,298.7L1250.9,298.7L1250.9,298.7z M1342.6,370.2h3.5
		c0.4,0.1,0.8-0.1,0.9-0.5c0-0.1,0-0.1,0-0.2l-0.1-0.4l-23-70.3c-0.2-0.5-0.7-0.9-1.2-0.8h-4.6c-0.6,0-1.1,0.3-1.3,0.8l-22.9,70.3
		c-0.2,0.8,0.1,1.1,0.8,1.1h3.6c0.6,0,1.1-0.3,1.2-0.8l4.3-13.7c0-0.2,0.2-0.3,0.4-0.3h32.2c0.2,0,0.4,0.1,0.4,0.3l4.4,13.7
		C1341.5,369.9,1342.1,370.3,1342.6,370.2L1342.6,370.2L1342.6,370.2z M1305.6,350.3l14.6-44.9c0-0.1,0.2-0.2,0.3-0.2
		c0.1,0,0.3,0.1,0.3,0.2l14.6,44.9c0.1,0.1,0.1,0.3-0.1,0.4c-0.1,0.1-0.2,0.2-0.4,0.2H1306c-0.1,0-0.3-0.1-0.4-0.2
		C1305.5,350.6,1305.5,350.4,1305.6,350.3L1305.6,350.3L1305.6,350.3z M1385.2,370.2h23.9c5.7,0.3,11.3-1.6,15.7-5.2
		c3.9-3.6,6-8.8,5.8-14.2v-33.5c0.3-5.4-1.9-10.5-5.8-14.2c-4.4-3.7-10-5.5-15.7-5.2h-23.9c-0.5-0.1-1,0.3-1,0.8c0,0.1,0,0.2,0,0.3
		v70.2c-0.1,0.5,0.3,1,0.8,1C1385,370.2,1385.1,370.2,1385.2,370.2L1385.2,370.2L1385.2,370.2z M1389.6,365v-61.7
		c0-0.2,0.1-0.4,0.3-0.4c0,0,0.1,0,0.1,0h19.4c4.2-0.2,8.4,1.2,11.5,4.1c2.9,3,4.4,7,4.2,11.1v32.2c0.1,4.1-1.4,8.1-4.3,11.1
		c-3.1,2.8-7.2,4.3-11.4,4.1H1390C1389.8,365.4,1389.6,365.3,1389.6,365C1389.6,365,1389.6,365,1389.6,365L1389.6,365L1389.6,365z
		 M1516.7,301.8V299c0.1-0.5-0.3-1-0.8-1c-0.1,0-0.2,0-0.3,0h-44c-0.5-0.1-1,0.3-1,0.8c0,0.1,0,0.2,0,0.3v70.2c-0.1,0.5,0.3,1,0.8,1
		c0.1,0,0.2,0,0.3,0h44c0.5,0.1,1-0.3,1-0.8c0-0.1,0-0.2,0-0.3v-2.8c0.1-0.5-0.3-1-0.8-1c-0.1,0-0.2,0-0.3,0h-39.1
		c-0.2,0-0.4-0.1-0.4-0.3c0,0,0-0.1,0-0.1v-28.2c0-0.2,0.1-0.4,0.3-0.4c0,0,0.1,0,0.1,0h27.8c0.5,0.1,1-0.3,1-0.8c0-0.1,0-0.2,0-0.3
		v-2.8c0.1-0.5-0.3-1-0.8-1c-0.1,0-0.2,0-0.3,0h-27.8c-0.2,0-0.4-0.1-0.4-0.3c0,0,0-0.1,0-0.1v-27.9c0-0.2,0.1-0.4,0.3-0.4
		c0,0,0.1,0,0.1,0h39.1c0.5,0.1,1-0.3,1-0.8C1516.7,301.9,1516.7,301.9,1516.7,301.8L1516.7,301.8L1516.7,301.8z M1645.8,301.8V299
		c0.1-0.5-0.3-1-0.8-1c-0.1,0-0.2,0-0.3,0h-44c-0.5-0.1-1,0.3-1,0.8c0,0.1,0,0.2,0,0.3v70.2c-0.1,0.5,0.3,1,0.8,1c0.1,0,0.2,0,0.3,0
		h44c0.5,0.1,1-0.3,1-0.8c0-0.1,0-0.2,0-0.3v-2.8c0.1-0.5-0.3-1-0.8-1c-0.1,0-0.2,0-0.3,0h-39.1c-0.2,0-0.4-0.1-0.4-0.3
		c0,0,0-0.1,0-0.1v-28.2c0-0.2,0.1-0.4,0.3-0.4c0,0,0.1,0,0.1,0h27.8c0.5,0.1,1-0.3,1-0.8c0-0.1,0-0.2,0-0.3v-2.8
		c0.1-0.5-0.3-1-0.8-1c-0.1,0-0.2,0-0.3,0h-27.8c-0.2,0-0.4-0.1-0.4-0.3c0,0,0-0.1,0-0.1v-27.9c0-0.2,0.1-0.4,0.3-0.4
		c0,0,0.1,0,0.1,0h39.1c0.5,0.1,1-0.3,1-0.8C1645.8,301.9,1645.8,301.9,1645.8,301.8L1645.8,301.8L1645.8,301.8z M1727.7,370.2h3.5
		c0.4,0.1,0.8-0.1,0.9-0.5c0-0.1,0-0.1,0-0.2l-0.1-0.4l-23-70.3c-0.2-0.5-0.7-0.9-1.3-0.8h-4.6c-0.6,0-1.1,0.3-1.3,0.8l-22.9,70.3
		c-0.2,0.8,0.1,1.1,0.8,1.1h3.6c0.6,0,1.1-0.3,1.2-0.8l4.3-13.7c0-0.2,0.2-0.3,0.4-0.3h32.2c0.2,0,0.4,0.1,0.4,0.3l4.4,13.7
		C1726.6,369.9,1727.1,370.3,1727.7,370.2L1727.7,370.2L1727.7,370.2z M1690.6,350.3l14.6-44.9c0.1-0.2,0.3-0.3,0.4-0.2
		c0.1,0,0.2,0.1,0.2,0.2l14.6,44.9c0.1,0.1,0,0.3-0.1,0.4c-0.1,0.1-0.2,0.2-0.4,0.2H1691c-0.1,0-0.3-0.1-0.4-0.2
		C1690.6,350.6,1690.5,350.4,1690.6,350.3L1690.6,350.3L1690.6,350.3z M1789.1,371c6.2,0.4,12.3-1.4,17.3-5.1
		c4.1-3.2,6.4-8.2,6.2-13.4c0.1-3.3-0.8-6.5-2.7-9.2c-2-2.7-4.5-5-7.4-6.7c-4-2.3-8.1-4.3-12.3-5.9c-5.1-2.1-8.9-3.7-11.3-5
		c-2.2-1.1-4.1-2.6-5.6-4.5c-1.4-2-2.1-4.3-2-6.7c-0.2-3.6,1.4-7.1,4.2-9.3c3.6-2.4,7.8-3.5,12.1-3.3c5-0.3,9.9,1.1,13.9,4
		c3.2,2.5,5.1,6.4,5,10.5v2.1c-0.1,0.5,0.3,1,0.8,1c0.1,0,0.2,0,0.3,0h3.4c0.5,0.1,1-0.3,1-0.8c0-0.1,0-0.2,0-0.3v-2.4
		c0.2-5.4-2.2-10.5-6.4-13.8c-5.1-3.7-11.3-5.5-17.6-5.2c-5.7-0.3-11.4,1.3-16.2,4.6c-3.9,3.2-6.1,8-5.8,13.1
		c-0.1,3.2,0.7,6.3,2.5,8.9c1.7,2.4,4,4.3,6.6,5.7c3.9,2.1,8,4,12.1,5.7c4.1,1.6,8,3.5,11.8,5.7c2.4,1.3,4.5,3.1,6.2,5.3
		c1.4,2,2.1,4.3,2,6.7c0.2,3.8-1.5,7.5-4.5,9.9c-3.9,2.6-8.5,3.9-13.1,3.6c-5.1,0.3-10.2-1.1-14.5-3.9c-3.4-2.3-5.4-6.2-5.3-10.3
		v-3.1c0.1-0.5-0.3-1-0.8-1c-0.1,0-0.2,0-0.3,0h-3.2c-0.5-0.1-1,0.3-1,0.8c0,0.1,0,0.2,0,0.3v3.4c-0.2,5.4,2.3,10.5,6.6,13.7
		C1776.4,369.6,1782.7,371.4,1789.1,371L1789.1,371L1789.1,371z M1868.4,370.2h3.3c0.5,0.1,1-0.3,1-0.8c0-0.1,0-0.2,0-0.3v-31.8
		c0-0.2,0-0.4,0.1-0.5l21.6-37.7c0.2-0.2,0.2-0.6,0.1-0.9c-0.2-0.3-0.5-0.4-0.8-0.4h-3.5c-0.5,0-1,0.3-1.3,0.7l-18.6,32.4
		c-0.2,0.1-0.4,0.1-0.6,0l-18.6-32.4c-0.3-0.4-0.7-0.7-1.3-0.7h-3.5c-0.6,0-0.9,0.2-0.9,0.6c0,0.2,0.1,0.4,0.2,0.6l21.6,37.7
		c0.1,0.2,0.1,0.3,0.1,0.5v31.8c-0.1,0.5,0.3,1,0.8,1C1868.2,370.2,1868.2,370.2,1868.4,370.2L1868.4,370.2L1868.4,370.2z"/>
	<path id="True_FinEdge_copy" class="st0" d="M601.7,210.2h42.7V71.4h46.7v-36H555v36h46.7L601.7,210.2L601.7,210.2z M700.1,210.2
		h37.7v-37c0.5-49.5,31.2-53.4,49.5-53.4v-37c-24,0-43,10.7-49.5,26.2V85.3h-37.7L700.1,210.2L700.1,210.2z M841.2,212.7
		c15.3-0.1,29.9-6.6,40.2-18v15.5h37.7V85.3h-37.7V143c0,24-9.7,37-25.7,37c-15.7,0-22-12.2-22-32.5V85.3H796V154
		C796,193.2,813.2,212.7,841.2,212.7z M928.4,148c0,38.7,26.2,64.7,70.2,64.9c16.7,0,33.2-4,44.5-12.5v-36.7
		c-7.2,8-19.5,14.5-38,14.5c-19.2,0-34.5-8.7-36.7-22h82.2c2-46.5-23.7-73.2-60.7-73.2C954.3,83.1,928.4,107.3,928.4,148L928.4,148z
		 M968.8,135.8c2.7-11.2,9.7-18,20.2-18s18,6.2,21,18H968.8L968.8,135.8z M1101.4,210.2h43.7v-73.4h58.4v-33h-58.4V71.4h58.4v-36
		h-102.2V210.2z M1214.1,210.2h38V85.3h-38L1214.1,210.2L1214.1,210.2z M1209.3,53.9c0.4,13.1,11.4,23.4,24.5,23
		c12.5-0.4,22.5-10.5,23-23c-0.4-13.1-11.4-23.4-24.5-22.9C1219.8,31.3,1209.7,41.4,1209.3,53.9L1209.3,53.9z M1350.9,144.8v65.4
		h37.7v-69.9c0-36.7-18.2-57.4-49.7-57.4c-13.8,0.2-27,5.9-36.5,16V85.3h-37.7v124.9h37.7v-62.9c0-19.2,11.5-31.7,25.5-31.7
		C1341.9,115.6,1350.9,125.1,1350.9,144.8L1350.9,144.8z M1401.4,210.2h102.1v-36h-58.4v-37.5h58.4v-33h-58.4V71.4h58.4v-36h-102.1
		L1401.4,210.2L1401.4,210.2z M1569.2,212.7c11.5,0.3,22.8-3.5,31.7-10.7v8.2h37.9V22.9h-38v70.7c-9-7.2-20.2-11-31.7-10.7
		c-34.7,0-58.9,29-58.9,64.9S1534.5,212.7,1569.2,212.7L1569.2,212.7z M1547.2,147.8c0-20.7,12.7-33.5,27.2-33.5
		c13.7,0,26.5,12.7,26.5,33.5c0,22.7-12.5,33.2-26.5,33.2C1560,181,1547.2,170.5,1547.2,147.8L1547.2,147.8z M1710.3,252.9
		c37.2,0,57.7-19.5,57.7-46.2c0-11.8-5.8-22.8-15.5-29.5c9.7-9.5,15.5-23,15.5-40.2c0.1-9.3-2-18.5-6.2-26.7c1.3-2.7,4-4.3,7-4.2
		V71.4c-16.2,0-28.7,5.7-36.7,15c-7.8-2.4-15.9-3.5-24-3.5c-35.7,0-59.9,20-59.9,54.2c0,35.7,24.2,56.2,59.9,56.2
		c12.7,0,20.7,4.5,20.7,12c0,9.5-6.7,15-20.5,15c-13.2,0-20-8-20.7-16.7l-39,5.7C1651.9,235.5,1676.6,252.9,1710.3,252.9
		L1710.3,252.9z M1687.1,137.5c0-15.2,8.2-24.2,21-24.2c13.2,0,20.7,9,20.7,24.2c0,15-7.7,25-20.7,25
		C1695.6,162.5,1687.1,152.5,1687.1,137.5z M1774.7,148c0,38.7,26.2,64.7,70.2,64.9c16.7,0,33.2-4,44.5-12.5v-36.7
		c-7.2,8-19.5,14.5-38,14.5c-19.2,0-34.5-8.7-36.7-22h82.2c2-46.5-23.7-73.2-60.7-73.2C1800.7,83.1,1774.7,107.3,1774.7,148z
		 M1815.2,135.8c2.7-11.2,9.7-18,20.2-18s18,6.2,21,18H1815.2z"/>
	<path class="st1" d="M288.2,145.6h127.1L477,34H230.1L41.2,369h123.5l33.6-62.6h-34.4c0,0-28.1,0-12.6-24.9c0,0,0.1-0.1,0.1-0.1
		l53.2-93.9c3-5.8,9.1-9.5,15.7-9.4h50.1L288.2,145.6z"/>
	<path class="st2" d="M23,145.6L84.7,34h127.1l-62.2,111.7H23z"/>
	<path id="Shape_8_copy" class="st2" d="M160.7,293.5l55.8-103h114.9l-59.1,103L160.7,293.5L160.7,293.5z"/>
</g>
</svg>
